<?xml version="1.0" encoding="UTF-8" standalone="no"?>
<!-- Created with Inkscape (http://www.inkscape.org/) -->

<svg
   xmlns:dc="http://purl.org/dc/elements/1.1/"
   xmlns:cc="http://creativecommons.org/ns#"
   xmlns:rdf="http://www.w3.org/1999/02/22-rdf-syntax-ns#"
   xmlns:svg="http://www.w3.org/2000/svg"
   xmlns="http://www.w3.org/2000/svg"
   xmlns:sodipodi="http://sodipodi.sourceforge.net/DTD/sodipodi-0.dtd"
   xmlns:inkscape="http://www.inkscape.org/namespaces/inkscape"
   version="1.0"
   width="502.88968"
   height="196.67932"
   id="svg2"
   sodipodi:docname="ligatures.svg"
   inkscape:version="0.92.4 (5da689c313, 2019-01-14)">
  <metadata
     id="metadata18">
    <rdf:RDF>
      <cc:Work
         rdf:about="">
        <dc:format>image/svg+xml</dc:format>
        <dc:type
           rdf:resource="http://purl.org/dc/dcmitype/StillImage" />
        <dc:title></dc:title>
      </cc:Work>
    </rdf:RDF>
  </metadata>
  <sodipodi:namedview
     pagecolor="#ffffff"
     bordercolor="#666666"
     borderopacity="1"
     objecttolerance="10"
     gridtolerance="10"
     guidetolerance="10"
     inkscape:pageopacity="0"
     inkscape:pageshadow="2"
     inkscape:window-width="1210"
     inkscape:window-height="668"
     id="namedview16"
     showgrid="false"
     fit-margin-top="0"
     fit-margin-left="0"
     fit-margin-right="0"
     fit-margin-bottom="0"
     inkscape:zoom="0.88755783"
     inkscape:cx="284.03661"
     inkscape:cy="-23.693379"
     inkscape:window-x="0"
     inkscape:window-y="27"
     inkscape:window-maximized="0"
     inkscape:current-layer="svg2" />
  <defs
     id="defs5" />
  <g
     id="g30"
     transform="translate(-24.14559,-27.91544)">
    <path
       transform="translate(147.44084,-176.54816)"
       id="flowRoot2191"
       style="font-style:italic;font-variant:normal;font-weight:normal;font-stretch:normal;font-size:56px;line-height:125%;font-family:FreeSerif;text-align:start;writing-mode:lr-tb;text-anchor:start;fill:#000000"
       d="m -83.93525,246.1916 v 1.024 h -15.744 v -1.024 c 2.602644,-0.256 4.138642,-0.768 4.608,-1.536 0.255975,-0.384 0.383975,-1.00267 0.384,-1.856 -2.5e-5,-0.34133 -0.04269,-0.896 -0.128,-1.664 l -1.28,-8.384 h -14.08 l -3.648,7.232 c -0.85334,1.70667 -1.28,3.02933 -1.28,3.968 0,0.93867 0.36266,1.536 1.088,1.792 0.46933,0.17066 1.36533,0.32 2.688,0.448 v 1.024 h -11.968 v -1.024 c 1.32267,-0.256 2.41067,-0.896 3.264,-1.92 0.896,-1.06667 2.56,-3.66933 4.992,-7.808 l 18.56,-32 h 1.664 l 6.016,36.224 c 0.469302,2.56 1.002634,4.096 1.6,4.608 0.554633,0.46933 1.642632,0.768 3.264,0.896 m -24.896,-15.744 h 12.416 l -2.816,-16.64 -9.6,16.64 m 43.861,14.656 c 6.271978,0 10.79464,-0.96 13.568,-2.88 1.450636,-1.024 3.242634,-2.98666 5.376,-5.888 l 1.024,0.512 -3.968,10.368 h -32.448 v -1.024 c 2.005332,-0.34134 3.306664,-0.87467 3.904,-1.6 0.426663,-0.512 0.853329,-1.55733 1.28,-3.136 l 7.872,-28.288 c 0.46932,-1.70663 0.703987,-3.07197 0.704,-4.096 -1.3e-5,-1.02396 -0.533346,-1.70663 -1.6,-2.048 -0.682678,-0.25596 -1.79201,-0.44796 -3.328,-0.576 v -1.024 h 31.808 l -1.984,9.792 -1.344,-0.128 c 0.0853,-1.45064 0.127963,-2.41064 0.128,-2.88 -3.7e-5,-1.8773 -0.746703,-3.11463 -2.24,-3.712 -1.5787,-0.63996 -4.92803,-0.95996 -10.048,-0.96 -2.389356,4e-5 -3.818687,0.25604 -4.288,0.768 -0.170687,0.21337 -0.298687,0.51203 -0.384,0.896 l -4.224,14.912 c 2.986648,-0.0853 4.67198,-0.12798 5.056,-0.128 2.943976,-0.12798 4.863974,-0.51198 5.76,-1.152 0.853306,-0.59731 1.877305,-2.23998 3.072,-4.928 l 1.152,0.256 -4.352,14.848 -1.28,-0.32 c 0.298641,-1.32265 0.447974,-2.43199 0.448,-3.328 -2.6e-5,-1.40798 -0.576025,-2.28265 -1.728,-2.624 -0.725356,-0.21332 -1.792022,-0.31998 -3.2,-0.32 h -0.512 c -1.066686,2e-5 -2.730684,-0.064 -4.992,-0.192 l -4.224,14.976 c -0.08534,0.512 -0.128011,1.088 -0.128,1.728 0.255989,1.408 1.962654,2.13333 5.12,2.176 m 96.417,-14.4 -16.192,13.184 -1.408,-2.112 10.176,-9.216 h -46.848 l 1.024,-3.584 h 46.848 l -5.056,-9.216 2.56,-2.112 8.896,13.056 m 34.166,1.536 -4.864,6.144 c -2.090674,2.816 -3.136006,4.75733 -3.136,5.824 -6e-6,0.768 0.469327,1.28 1.408,1.536 0.554659,0.17066 1.450658,0.32 2.688,0.448 v 1.024 h -11.968 v -1.024 c 1.024001,-0.256 2.133333,-1.04533 3.328,-2.368 0.511998,-0.55467 1.194664,-1.38667 2.048,-2.496 l 23.616,-29.76 c 1.322638,-1.6213 2.005304,-2.75197 2.048,-3.392 -2.9e-5,-0.9813 -0.810695,-1.53596 -2.432,-1.664 -0.170693,4e-5 -0.725359,-0.0426 -1.664,-0.128 v -0.96 h 33.088 l -2.112,9.792 -1.088,-0.128 c 0.0426,-0.55464 0.0639,-1.32264 0.064,-2.304 -6e-5,-2.09063 -0.59739,-3.45597 -1.792,-4.096 -1.40805,-0.76796 -4.906715,-1.15196 -10.496,-1.152 -1.877374,4e-5 -3.029373,0.27737 -3.456,0.832 -0.213373,0.2987 -0.426706,0.8107 -0.64,1.536 l -3.904,14.208 c 4.99196,-0.0427 8.127957,-0.34131 9.408,-0.896 1.237288,-0.51198 2.34662,-1.72798 3.328,-3.648 0.213286,-0.42664 0.469285,-0.98131 0.768,-1.664 l 1.152,0.256 -4.416,14.848 -1.088,-0.256 c 0.255956,-1.53599 0.383956,-2.64532 0.384,-3.328 -4.4e-5,-1.40798 -0.576044,-2.30398 -1.728,-2.688 -1.024042,-0.34132 -2.965373,-0.51198 -5.824,-0.512 h -2.56 c -3.029365,10.75201 -4.54403,16.42667 -4.544,17.024 -3e-5,1.23733 1.087969,1.856 3.264,1.856 h 1.92 c 5.333293,0 9.237289,-0.768 11.712,-2.304 2.00528,-1.19466 4.07462,-3.328 6.208,-6.4 l 1.152,0.32 -4.096,10.496 h -31.872 v -1.024 c 2.346646,-0.21334 3.775978,-0.61867 4.288,-1.216 0.298644,-0.34133 0.575977,-0.96 0.832,-1.856 l 3.136,-10.88 h -12.16 m 1.792,-2.368 h 11.072 l 6.08,-21.888 -17.152,21.888"
       inkscape:connector-curvature="0" />
    <path
       id="flowRoot2247"
       style="font-style:italic;font-variant:normal;font-weight:normal;font-stretch:normal;font-size:56px;line-height:125%;font-family:FreeSerif;text-align:start;writing-mode:lr-tb;text-anchor:start;fill:#000000"
       d="m 360.0625,30.65625 c -0.38401,4e-5 -0.75244,0.05954 -1.09375,0.1875 -1.28001,0.5547 -1.90625,1.640118 -1.90625,3.21875 -10e-6,0.38403 0.0397,0.721201 0.125,1.0625 0.38399,1.53603 1.35883,2.31253 2.9375,2.3125 0.46932,3e-5 0.89723,-0.09914 1.28125,-0.3125 1.23732,-0.5973 1.87498,-1.57213 1.875,-2.9375 -2e-5,-0.51196 -0.13043,-1.019211 -0.34375,-1.53125 -0.64002,-1.32263 -1.595,-1.99996 -2.875,-2 z m 19.90625,0 c -0.34135,4e-5 -0.68992,0.05954 -1.03125,0.1875 -1.32268,0.46937 -1.96877,1.523541 -1.96875,3.1875 -10e-6,0.38403 0.0397,0.752449 0.125,1.09375 0.38399,1.53603 1.35882,2.312529 2.9375,2.3125 0.46932,3e-5 0.89723,-0.09914 1.28125,-0.3125 1.23732,-0.5973 1.84374,-1.603382 1.84375,-2.96875 -2e-5,-0.51196 -0.0992,-1.019208 -0.3125,-1.53125 -0.64002,-1.32263 -1.59503,-1.968709 -2.875,-1.96875 z m 110.65625,0 c -0.42668,4e-5 -0.81492,0.07937 -1.15625,0.25 -1.23735,0.51204 -1.84376,1.597449 -1.84375,3.21875 -10e-6,0.38403 0.0397,0.721202 0.125,1.0625 0.42666,1.49337 1.4015,2.25003 2.9375,2.25 0.46932,3e-5 0.91705,-0.09914 1.34375,-0.3125 1.19465,-0.5973 1.78123,-1.57213 1.78125,-2.9375 -2e-5,-0.51196 -0.0992,-0.99938 -0.3125,-1.46875 -0.59735,-1.3653 -1.55234,-2.06246 -2.875,-2.0625 z m 16.78125,0 c -0.4267,4e-5 -0.81494,0.07937 -1.15625,0.25 -1.23736,0.51204 -1.87503,1.597449 -1.875,3.21875 -3e-5,0.38403 0.0396,0.721202 0.125,1.0625 0.42664,1.49337 1.43273,2.25003 2.96875,2.25 0.4693,3e-5 0.91706,-0.09914 1.34375,-0.3125 1.19463,-0.5973 1.7812,-1.57213 1.78125,-2.9375 -3e-5,-0.51196 -0.0992,-0.99938 -0.3125,-1.46875 -0.59737,-1.3653 -1.55236,-2.06246 -2.875,-2.0625 z M 448,42.9375 l -2.5625,2.125 5.0625,9.21875 h -46.84375 l -1.03125,3.5625 h 46.84375 l -10.15625,9.21875 1.40625,2.125 L 456.90625,56 Z m -87.21875,1.34375 c -4.86401,0.89602 -8.28735,1.423108 -10.25,1.59375 v 1.03125 c 1.40799,0.04269 2.36298,0.102189 2.875,0.1875 0.76799,0.17069 1.15625,0.618441 1.15625,1.34375 -10e-6,0.59735 -0.17851,1.563769 -0.5625,2.84375 l -3.09375,11.3125 C 349.96758,66.00709 349.5,68.325172 349.5,69.5625 c 0,2.432 0.97483,3.656249 2.9375,3.65625 0.68266,0 1.34015,-0.09917 1.9375,-0.3125 1.96266,-0.64 4.30056,-2.958083 7.03125,-6.96875 l -0.84375,-0.71875 c -2.51735,3.328 -4.23743,5.000002 -5.21875,5 -0.0853,0 -0.19592,-0.01983 -0.28125,-0.0625 -0.51201,-0.17067 -0.75002,-0.479579 -0.75,-0.90625 -10e-6,-0.34133 0.19833,-1.276497 0.625,-2.8125 l 6.03125,-22.03125 z m 20.28125,0 c -5.63201,1.02402 -9.25368,1.55111 -10.875,1.59375 v 1.03125 h 2.28125 c 1.62132,2e-5 2.43748,0.677351 2.4375,2 -10e-6,0.72535 -0.34858,2.405768 -1.03125,5.09375 l -4.59375,18.6875 c -0.896,3.54133 -1.69235,6.14849 -2.375,7.8125 -1.06667,2.51732 -2.35043,3.781229 -3.84375,3.78125 -0.768,-2e-5 -1.15625,-0.218179 -1.15625,-0.6875 0,-0.17068 0.0908,-0.360598 0.21875,-0.53125 0.42667,-0.64001 0.625,-1.147262 0.625,-1.53125 0,-0.25601 -0.0397,-0.525257 -0.125,-0.78125 -0.384,-1.06668 -1.22001,-1.593758 -2.5,-1.59375 -0.29866,-1e-5 -0.60759,0.03966 -0.90625,0.125 -1.10933,0.42666 -1.65625,1.282488 -1.65625,2.5625 10e-6,0.55465 0.11899,1.08174 0.375,1.59375 0.81067,1.53598 2.3835,2.312479 4.6875,2.3125 0.29867,-2e-5 0.58774,-0.01985 0.84375,-0.0625 5.03466,-0.42668 8.73566,-5.41143 11.125,-14.96875 L 381.25,44.40625 Z m 110.25,0 c -3.07201,0.76802 -6.26576,1.36602 -9.59375,1.75 v 0.875 h 1.15625 c 1.79199,2e-5 2.6875,0.637691 2.6875,1.875 -10e-6,1.40802 -0.66592,4.33252 -2.03125,8.8125 -1.87734,6.14401 -2.81252,10.09442 -2.8125,11.84375 0.17066,2.09066 1.32399,3.354579 3.5,3.78125 3.32799,0 7.06025,-3.05492 11.15625,-9.15625 0.17065,-0.25599 1.69241,-2.783829 4.59375,-7.5625 l -4.03125,16.21875 c -0.0427,0.128 -0.0824,0.326331 -0.125,0.625 -1.70668,7.29599 -3.70742,10.937481 -5.96875,10.9375 -0.85334,-2e-5 -1.28125,-0.218177 -1.28125,-0.6875 -10e-6,-0.17068 0.0907,-0.360604 0.21875,-0.53125 0.42665,-0.68268 0.625,-1.209758 0.625,-1.59375 -10e-6,-0.29868 -0.0595,-0.556507 -0.1875,-0.8125 -0.42668,-0.98134 -1.223,-1.500007 -2.375,-1.5 -0.34134,-1e-5 -0.68993,0.110569 -1.03125,0.28125 -1.06667,0.46932 -1.59376,1.194741 -1.59375,2.21875 -10e-6,0.59732 0.0992,1.155653 0.3125,1.625 0.72532,1.66398 2.29815,2.46873 4.6875,2.46875 1.57865,-2e-5 3.02107,-0.357019 4.34375,-1.125 3.24265,-1.92001 5.81016,-6.567589 7.6875,-13.90625 l 6.65625,-26.3125 -0.1875,-0.125 c -5.41869,0.98136 -9.04036,1.508438 -10.875,1.59375 v 1.03125 h 0.0625 l 1.53125,-0.0625 c 2.13331,2e-5 3.18749,0.487439 3.1875,1.46875 -2e-5,0.42669 -0.0992,1.024688 -0.3125,1.75 -0.98136,3.32802 -3.12093,7.377589 -6.40625,12.15625 -3.49868,5.07733 -6.12569,7.593747 -7.875,7.59375 -0.93868,0 -1.40625,-0.527077 -1.40625,-1.59375 -10e-6,-0.17067 0.0992,-0.717583 0.3125,-1.65625 l 5.59375,-22.15625 z"
       inkscape:connector-curvature="0" />
  </g>
  <g
     id="g26"
     transform="translate(-24.14559,-36.837082)">
    <path
       inkscape:connector-curvature="0"
       id="flowRoot2215"
       style="font-style:italic;font-variant:normal;font-weight:normal;font-stretch:normal;font-size:56px;line-height:125%;font-family:FreeSerif;text-align:start;writing-mode:lr-tb;text-anchor:start;fill:#000000"
       d="m 25.02865,136.2915 c 0,-6.78398 2.53866,-13.01331 7.616,-18.688 4.13865,-4.5653 8.789313,-7.59463 13.952,-9.088 1.70664,-0.46929 3.349305,-0.70396 4.928,-0.704 4.607965,4e-5 8.319961,1.72804 11.136,5.184 2.175956,2.7307 3.263955,5.99469 3.264,9.792 -4.5e-5,5.24802 -1.749376,10.51735 -5.248,15.808 -3.882702,5.888 -8.704031,9.81333 -14.464,11.776 -2.346689,0.81066 -4.757354,1.216 -7.232,1.216 -4.65068,0 -8.29868,-1.792 -10.944,-5.376 -2.00534,-2.73066 -3.008,-6.03733 -3.008,-9.92 m 15.04,13.184 c 4.863976,0 9.194639,-3.072 12.992,-9.216 3.199965,-5.11999 5.16263,-10.79465 5.888,-17.024 0.170629,-1.27998 0.255962,-2.47464 0.256,-3.584 -3.8e-5,-4.35197 -1.450703,-7.29597 -4.352,-8.832 -1.152033,-0.5973 -2.453365,-0.89596 -3.904,-0.896 -4.608025,4e-5 -8.661354,2.5387 -12.16,7.616 -2.77335,4.01069 -4.84268,8.89602 -6.208,14.656 -0.55468,2.47468 -0.83201,4.62934 -0.832,6.464 -10e-6,5.888 1.91999,9.38667 5.76,10.496 0.76798,0.21333 1.62132,0.32 2.56,0.32 m 43.306,-1.152 c 6.271978,0 10.79464,-0.96 13.568,-2.88 1.450636,-1.024 3.24263,-2.98666 5.376,-5.888 l 1.024,0.512 -3.968,10.368 h -32.448 v -1.024 c 2.005332,-0.34134 3.306664,-0.87467 3.904,-1.6 0.426663,-0.512 0.853329,-1.55733 1.28,-3.136 l 7.872,-28.288 c 0.46932,-1.70663 0.703987,-3.07197 0.704,-4.096 -1.3e-5,-1.02396 -0.533346,-1.70663 -1.6,-2.048 -0.682678,-0.25596 -1.79201,-0.44796 -3.328,-0.576 v -1.024 h 31.808 l -1.984,9.792 -1.344,-0.128 c 0.0853,-1.45064 0.12796,-2.41064 0.128,-2.88 -4e-5,-1.8773 -0.7467,-3.11463 -2.24,-3.712 -1.5787,-0.63996 -4.92803,-0.95996 -10.048,-0.96 -2.389356,4e-5 -3.818687,0.25604 -4.288,0.768 -0.170687,0.21337 -0.298687,0.51203 -0.384,0.896 l -4.224,14.912 c 2.986648,-0.0853 4.67198,-0.12798 5.056,-0.128 2.943976,-0.12798 4.863974,-0.51198 5.76,-1.152 0.853306,-0.59731 1.877305,-2.23998 3.072,-4.928 l 1.152,0.256 -4.352,14.848 -1.28,-0.32 c 0.298641,-1.32265 0.447974,-2.43199 0.448,-3.328 -2.6e-5,-1.40798 -0.576025,-2.28265 -1.728,-2.624 -0.725356,-0.21332 -1.792022,-0.31998 -3.2,-0.32 h -0.512 c -1.066686,2e-5 -2.730684,-0.064 -4.992,-0.192 l -4.224,14.976 c -0.08534,0.512 -0.128011,1.088 -0.128,1.728 0.255989,1.408 1.962654,2.13333 5.12,2.176 m 96.417,-14.4 -16.192,13.184 -1.408,-2.112 10.176,-9.216 h -46.848 l 1.024,-3.584 h 46.848 l -5.056,-9.216 2.56,-2.112 8.896,13.056 m 48.374,-26.112 c 0.68264,4e-5 3.3493,0.23471 8,0.704 0.76796,0.0854 1.34396,0.12804 1.728,0.128 h 23.616 l -1.984,9.6 h -1.024 c -6e-5,-3.0293 -0.36272,-4.99197 -1.088,-5.888 -0.93872,-1.06663 -3.13605,-1.59996 -6.592,-1.6 h -6.144 c -1.06671,4e-5 -1.79204,0.4907 -2.176,1.472 -0.0854,0.1707 -0.14938,0.3627 -0.192,0.576 l -4.096,14.528 h 0.768 c 4.65062,2e-5 7.57329,-0.27731 8.768,-0.832 1.15195,-0.51198 2.21862,-1.77064 3.2,-3.776 0.21328,-0.38398 0.44795,-0.87464 0.704,-1.472 l 1.152,0.256 -4.224,14.72 -1.28,-0.128 0.384,-2.624 v -0.064 c -5e-5,-1.62132 -0.49071,-2.66665 -1.472,-3.136 -0.76805,-0.34132 -2.30404,-0.55465 -4.608,-0.64 l -3.968,-0.192 -3.328,12.16 -0.896,3.904 c -0.0427,0.21333 -0.064,0.384 -0.064,0.512 -3e-5,1.152 0.70397,1.856 2.112,2.112 0.63996,0.128 1.53596,0.192 2.688,0.192 5.29062,0 9.27995,-0.85333 11.968,-2.56 1.96261,-1.23733 4.03195,-3.34933 6.208,-6.336 l 1.024,0.384 -4.16,10.624 h -22.144 l -13.504,0.512 h -0.064 c -4.65068,0 -8.38401,-1.728 -11.2,-5.184 -2.21867,-2.688 -3.328,-5.93066 -3.328,-9.728 0,-6.74132 2.17599,-12.84264 6.528,-18.304 4.01065,-5.0773 8.81065,-8.23463 14.4,-9.472 1.40797,-0.29863 2.83731,-0.44796 4.288,-0.448 m 0.32,2.048 c -4.90669,4e-5 -9.19469,2.77337 -12.864,8.32 -3.24268,4.94936 -5.12001,10.53868 -5.632,16.768 -0.0853,0.85334 -0.12801,1.70668 -0.128,2.56 -1e-5,7.59467 3.07199,11.392 9.216,11.392 3.19998,0 5.56797,-1.17333 7.104,-3.52 0.93864,-1.49333 1.91997,-4.05333 2.944,-7.68 l 4.672,-17.152 c 0.8533,-3.11464 1.27996,-4.99197 1.28,-5.632 -4e-5,-2.04797 -1.08803,-3.51996 -3.264,-4.416 -1.02403,-0.42663 -2.13336,-0.63996 -3.328,-0.64" />
    <path
       inkscape:connector-curvature="0"
       id="flowRoot2279"
       style="font-style:italic;font-variant:normal;font-weight:normal;font-stretch:normal;font-size:56px;line-height:125%;font-family:FreeSerif;text-align:start;writing-mode:lr-tb;text-anchor:start;fill:#000000"
       d="m 501.78125,106.59375 c -2.34669,4e-5 -4.41534,0.63772 -6.25,1.875 -1.61601,1.08802 -3.05491,2.77036 -4.34375,5.0625 -0.007,0.012 -0.0245,0.0192 -0.0312,0.0312 -1.44613,2.36625 -2.91757,5.53618 -4.15625,9.5 h -5.875 l -0.46875,2.03125 h 5.78125 l -5.625,26.875 c -1.408,6.91199 -3.48809,10.37498 -6.21875,10.375 -0.85332,-0.0854 -1.28122,-0.43393 -1.28125,-1.03125 1e-5,-0.17068 0.0397,-0.30951 0.125,-0.4375 0.29868,-0.59735 0.43748,-1.02526 0.4375,-1.28125 1e-5,-0.29868 -0.0595,-0.6076 -0.1875,-0.90625 -0.42666,-1.02401 -1.17191,-1.53126 -2.28125,-1.53125 -0.25599,-1e-5 -0.52523,0.0397 -0.78125,0.125 -1.06665,0.38399 -1.59376,1.21999 -1.59375,2.5 1e-5,0.59732 0.1587,1.14424 0.5,1.65625 0.89601,1.49332 2.4292,2.24998 4.5625,2.25 0.68267,-2e-5 1.32877,-0.0794 1.96875,-0.25 4.864,-1.36535 8.46586,-7.30509 10.8125,-17.84375 l 5.0625,-22.53125 c 0.16522,-0.74349 0.30617,-1.41502 0.46875,-2.09375 2.43992,-8.59985 5.61759,-12.90621 9.1875,-12.90625 2.47464,0.12804 3.79804,1.81987 3.96875,5.0625 0.0525,2.67807 -0.60638,5.26927 -1.25,7.84375 -1.13733,0.78956 -2.58464,1.59186 -4.34375,2.40625 -0.896,0.38402 -1.34377,0.83177 -1.34375,1.34375 0,0.12802 0.0198,0.24703 0.0625,0.375 h 4.71875 l -4.59375,17.59375 c -0.98134,3.66933 -1.46874,5.68992 -1.46875,6.03125 0,0.256 0.0397,0.494 0.125,0.75 0.42666,1.10933 1.40149,1.6875 2.9375,1.6875 0.89599,0 1.732,-0.18992 2.5,-0.53125 1.66399,-0.81067 3.86304,-3.20808 6.59375,-7.21875 l -0.84375,-0.4375 c -0.72535,0.93867 -1.31193,1.66409 -1.78125,2.21875 -1.53601,1.87733 -2.68091,2.8125 -3.40625,2.8125 -0.64001,0 -0.93752,-0.42792 -0.9375,-1.28125 -10e-6,-0.0853 0.0199,-0.1845 0.0625,-0.3125 l 5.625,-21.3125 h 5.375 l 0.3125,-2.03125 h -5.125 c 1.41325,-4.7371 2.86287,-7.85319 0.75,-12.5 -1.5787,-2.64529 -4.16604,-3.96871 -7.75,-3.96875 z m -135.34375,0.125 c -2.68802,4e-5 -5.02592,1.07404 -7.03125,3.25 -2.09068,2.3467 -4.11126,6.60603 -6.03125,12.75 H 347.5 l -0.4375,2.03125 h 5.75 l -5.625,26.875 c -1.408,6.91199 -3.48809,10.37499 -6.21875,10.375 -0.85333,-0.0854 -1.28123,-0.43394 -1.28125,-1.03125 10e-6,-0.17068 0.0397,-0.3095 0.125,-0.4375 0.29867,-0.59735 0.46875,-1.02525 0.46875,-1.28125 0,-0.29868 -0.0907,-0.6076 -0.21875,-0.90625 -0.42666,-1.02401 -1.17191,-1.53126 -2.28125,-1.53125 -0.25599,-1e-5 -0.52524,0.0397 -0.78125,0.125 -1.06666,0.38399 -1.59373,1.21999 -1.59375,2.5 10e-6,0.59732 0.15867,1.14424 0.5,1.65625 0.89601,1.49332 2.42918,2.24998 4.5625,2.25 0.68267,-2e-5 1.32875,-0.0794 1.96875,-0.25 4.864,-1.36535 8.46582,-7.30509 10.8125,-17.84375 l 5.0625,-22.53125 c 0.93865,-4.22397 1.83415,-7.42913 2.6875,-9.5625 1.36532,-3.37063 3.07699,-5.0312 5.125,-5.03125 0.93864,4e-5 1.40621,0.23804 1.40625,0.75 -2e-5,0.0854 -0.0198,0.18453 -0.0625,0.3125 -0.38402,0.85337 -0.56252,1.43153 -0.5625,1.6875 -2e-5,0.21337 0.0198,0.41169 0.0625,0.625 0.25598,1.28003 1.00122,1.93753 2.28125,1.9375 0.34131,3e-5 0.6899,-0.0595 1.03125,-0.1875 1.10931,-0.42663 1.65623,-1.22298 1.65625,-2.375 -3e-5,-0.63996 -0.1587,-1.2578 -0.5,-1.8125 -0.98136,-1.57863 -2.65336,-2.34371 -5,-2.34375 z m 11.28125,8.4375 c -0.34135,3e-5 -0.63884,0.17852 -0.9375,0.5625 -1.28001,1.66403 -2.58359,3.0782 -3.90625,4.1875 -1.23734,1.02403 -3.00849,2.05836 -5.3125,3.125 -0.896,0.38402 -1.34374,0.83176 -1.34375,1.34375 0,0.12802 0.0198,0.24703 0.0625,0.375 H 371 l -4.59375,17.59375 c -0.98134,3.66933 -1.46874,5.68991 -1.46875,6.03125 0,0.256 0.0396,0.494 0.125,0.75 0.42666,1.10933 1.40148,1.6875 2.9375,1.6875 0.89599,0 1.73201,-0.18992 2.5,-0.53125 1.66399,-0.81067 3.86308,-3.20807 6.59375,-7.21875 L 376.25,142.625 c -0.72535,0.93867 -1.31193,1.66409 -1.78125,2.21875 -1.53601,1.87733 -2.68093,2.8125 -3.40625,2.8125 -0.64001,0 -0.93752,-0.42792 -0.9375,-1.28125 -10e-6,-0.0853 0.0198,-0.1845 0.0625,-0.3125 l 5.625,-21.3125 h 5.375 l 0.3125,-2.03125 h -5.125 l 1.8125,-6.59375 c 0.0426,-0.0853 0.0625,-0.21572 0.0625,-0.34375 -2e-5,-0.42664 -0.18994,-0.62497 -0.53125,-0.625 z m 67.4375,5.375 -2.5625,2.125 5.03125,9.1875 h -46.84375 l -1,3.59375 H 446.625 l -10.1875,9.21875 1.40625,2.125 16.1875,-13.1875 z" />
  </g>
  <g
     id="g22"
     transform="translate(-24.14559,-27.915443)">
    <path
       inkscape:connector-curvature="0"
       id="flowRoot2239"
       style="font-style:italic;font-variant:normal;font-weight:normal;font-stretch:normal;font-size:56px;line-height:125%;font-family:FreeSerif;text-align:start;writing-mode:lr-tb;text-anchor:start;fill:#000000"
       d="m 62.943674,220.49876 c 0,0.25599 -0.14933,0.68265 -0.448,1.28 -0.08533,0.12799 -0.12799,0.27732 -0.128,0.448 10e-6,0.59732 0.42667,0.93865 1.28,1.024 2.73067,-2e-5 4.8,-3.45601 6.208,-10.368 l 5.632,-26.88 h -5.76 l 0.448,-2.048 h 5.888 c 1.919995,-6.14397 3.925325,-10.3893 6.016005,-12.736 2.00532,-2.17596 4.35198,-3.26396 7.04,-3.264 2.346643,4e-5 4.010641,0.78937 4.992,2.368 0.341306,0.5547 0.511973,1.15204 0.512,1.792 -2.7e-5,1.15203 -0.554693,1.94137 -1.664,2.368 -0.341358,0.12803 -0.682691,0.19203 -1.024,0.192 -1.280023,3e-5 -2.048022,-0.63997 -2.304,-1.92 -0.04269,-0.2133 -0.06402,-0.42663 -0.064,-0.64 -2.2e-5,-0.25596 0.191978,-0.81063 0.576,-1.664 0.04264,-0.12796 0.06398,-0.23463 0.064,-0.32 -2.3e-5,-0.51196 -0.469356,-0.76796 -1.408,-0.768 -2.73069,4e-5 -4.90668,2.9227 -6.528,8.768 -0.42668,1.66403 -0.85335,3.60536 -1.28,5.824 h 6.912 l -0.384,2.048 h -6.976 l -4.608005,20.48 c -2.34667,10.53866 -5.952,16.49065 -10.816,17.856 -0.64,0.17065 -1.30133,0.25598 -1.984,0.256 -2.13333,-2e-5 -3.64799,-0.74668 -4.544,-2.24 -0.34132,-0.51201 -0.51199,-1.06668 -0.512,-1.664 1e-5,-1.28001 0.53334,-2.11201 1.6,-2.496 0.25601,-0.0853 0.51201,-0.12801 0.768,-0.128 1.10934,-10e-6 1.87734,0.51199 2.304,1.536 0.128,0.29865 0.192,0.59732 0.192,0.896 m 35.043805,-11.456 c 0.981323,0 2.730651,-1.664 5.248001,-4.992 l 0.832,0.704 c -2.73068,4.01067 -5.077344,6.336 -7.040001,6.976 -0.597341,0.21333 -1.23734,0.32 -1.92,0.32 -1.962671,0 -2.944003,-1.216 -2.944,-3.648 -3e-6,-1.23733 0.46933,-3.56266 1.408,-6.976 l 3.072,-11.328 c 0.383992,-1.27998 0.575992,-2.21865 0.576,-2.816 -8e-6,-0.72531 -0.384008,-1.17331 -1.152,-1.344 -0.512007,-0.0853 -1.472006,-0.14931 -2.88,-0.192 v -1.024 c 1.962661,-0.17064 5.37599,-0.70398 10.240001,-1.6 l 0.192,0.128 -6.016001,22.016 c -0.426675,1.536 -0.640008,2.47467 -0.64,2.816 -8e-6,0.42667 0.255992,0.72533 0.768,0.896 0.08533,0.0427 0.170658,0.064 0.256,0.064 m 4.736001,-39.552 c 1.27998,4e-5 2.23998,0.66137 2.88,1.984 0.21332,0.51204 0.31998,1.02404 0.32,1.536 -2e-5,1.36537 -0.61868,2.3467 -1.856,2.944 -0.38402,0.21336 -0.81068,0.32003 -1.28,0.32 -1.57868,3e-5 -2.56001,-0.76797 -2.944001,-2.304 -0.08534,-0.3413 -0.128011,-0.70397 -0.128,-1.088 -1.1e-5,-1.57863 0.639991,-2.6453 1.920001,-3.2 0.34132,-0.12796 0.70399,-0.19196 1.088,-0.192 m 77.782,25.344 -16.192,13.184 -1.408,-2.112 10.176,-9.216 h -46.848 l 1.024,-3.584 h 46.848 l -5.056,-9.216 2.56,-2.112 8.896,13.056 m 15.862,25.664 c 0,0.21332 -0.14933,0.61865 -0.448,1.216 -0.0853,0.17065 -0.128,0.34132 -0.128,0.512 0,0.55465 0.42667,0.83198 1.28,0.832 2.432,-2e-5 4.352,-2.77335 5.76,-8.32 0.128,-0.51201 0.74666,-3.47734 1.856,-8.896 2.47466,-12.20265 3.90399,-18.81598 4.288,-19.84 h -5.568 l 0.448,-2.048 h 5.568 c 1.96265,-6.3573 4.24532,-10.7093 6.848,-13.056 2.30398,-2.09063 5.11998,-3.13596 8.448,-3.136 2.98664,4e-5 5.0133,0.87471 6.08,2.624 0.3413,0.5547 0.51197,1.17337 0.512,1.856 -3e-5,1.40803 -0.64003,2.2827 -1.92,2.624 -0.25603,0.0427 -0.51203,0.064 -0.768,0.064 -1.32269,3e-5 -2.15469,-0.61863 -2.496,-1.856 -0.0854,-0.25597 -0.12803,-0.5333 -0.128,-0.832 -3e-5,-0.51196 0.23464,-1.08796 0.704,-1.728 0.0853,-0.12796 0.12797,-0.23463 0.128,-0.32 -3e-5,-0.68263 -0.72536,-1.02396 -2.176,-1.024 -2.81602,4e-5 -5.03469,1.47204 -6.656,4.416 -0.93868,1.74937 -2.15468,5.20536 -3.648,10.368 h 9.6 c 1.06664,2e-5 2.98664,-0.14931 5.76,-0.448 0.2133,-0.0426 0.4053,-0.064 0.576,-0.064 l 0.32,0.192 c -3e-5,0.59736 -1.42936,5.99468 -4.288,16.192 -1.40803,4.992 -2.11203,7.82933 -2.112,8.512 -3e-5,0.34133 0.23464,0.55467 0.704,0.64 0.85331,0 2.5173,-1.472 4.992,-4.416 l 1.024,0.576 c -2.8587,3.92533 -5.26936,6.12266 -7.232,6.592 -0.38402,0.0853 -0.78936,0.128 -1.216,0.128 -1.57869,0 -2.56002,-0.72534 -2.944,-2.176 -0.0854,-0.29867 -0.12802,-0.61867 -0.128,-0.96 -2e-5,-1.28 1.49331,-7.29599 4.48,-18.048 0.68264,-2.43198 1.02397,-3.77598 1.024,-4.032 -3e-5,-0.42665 -0.34136,-0.63998 -1.024,-0.64 h -9.92 l -4.608,20.48 c -2.60267,11.47732 -6.63467,17.49332 -12.096,18.048 -0.256,0.0427 -0.512,0.064 -0.768,0.064 -2.26133,-2e-5 -3.79733,-0.78935 -4.608,-2.368 -0.25599,-0.46935 -0.38399,-1.00268 -0.384,-1.6 1e-5,-1.23735 0.53334,-2.04801 1.6,-2.432 0.25601,-0.0853 0.51201,-0.12801 0.768,-0.128 1.10934,-10e-6 1.87734,0.51199 2.304,1.536 0.128,0.29865 0.192,0.59732 0.192,0.896" />
    <path
       inkscape:connector-curvature="0"
       id="flowRoot2303"
       style="font-style:italic;font-variant:normal;font-weight:normal;font-stretch:normal;font-size:56px;line-height:125%;font-family:FreeSerif;text-align:start;writing-mode:lr-tb;text-anchor:start;fill:#000000"
       d="m 322.98703,219.42384 c 0,0.25599 -0.14933,0.68265 -0.448,1.28 -0.0853,0.12799 -0.12799,0.27732 -0.128,0.448 1e-5,0.59732 0.42667,0.93865 1.28,1.024 2.73067,-2e-5 4.8,-3.45601 6.208,-10.368 l 5.632,-26.88 h -5.76 l 0.448,-2.048 h 5.888 c 1.91999,-6.14397 3.92532,-10.3893 6.016,-12.736 2.00532,-2.17596 4.35198,-3.26396 7.04,-3.264 2.34664,4e-5 4.01064,0.78937 4.992,2.368 0.34131,0.5547 0.51197,1.15204 0.512,1.792 -3e-5,1.15203 -0.55469,1.94137 -1.664,2.368 -0.34136,0.12803 -0.68269,0.19203 -1.024,0.192 -1.28002,3e-5 -2.04802,-0.63997 -2.304,-1.92 -0.0427,-0.2133 -0.064,-0.42663 -0.064,-0.64 -2e-5,-0.25596 0.19198,-0.81063 0.576,-1.664 0.0426,-0.12796 0.064,-0.23463 0.064,-0.32 -2e-5,-0.51196 -0.46936,-0.76796 -1.408,-0.768 -2.73069,4e-5 -4.90668,2.9227 -6.528,8.768 -0.42668,1.66403 -0.85335,3.60536 -1.28,5.824 h 6.912 l -0.384,2.048 h -6.976 l -4.608,20.48 c -2.34667,10.53866 -5.952,16.49065 -10.816,17.856 -0.64,0.17065 -1.30133,0.25598 -1.984,0.256 -2.13333,-2e-5 -3.64799,-0.74668 -4.544,-2.24 -0.34132,-0.51201 -0.51199,-1.06668 -0.512,-1.664 10e-6,-1.28001 0.53334,-2.11201 1.6,-2.496 0.25601,-0.0853 0.51201,-0.12801 0.768,-0.128 1.10934,-1e-5 1.87734,0.51199 2.304,1.536 0.128,0.29865 0.192,0.59732 0.192,0.896 m 21.05241,0 c 10e-6,0.25599 -0.14933,0.68265 -0.448,1.28 -0.0853,0.12799 -0.12799,0.27732 -0.128,0.448 1e-5,0.59732 0.42667,0.93865 1.28,1.024 2.73067,-2e-5 4.8,-3.45601 6.208,-10.368 l 5.632,-26.88 h -5.76 l 0.448,-2.048 h 5.888 c 1.91999,-6.14397 3.92532,-10.3893 6.016,-12.736 2.00532,-2.17596 4.35198,-3.26396 7.04,-3.264 2.34665,4e-5 4.01064,0.78937 4.992,2.368 0.34131,0.5547 0.51198,1.15204 0.512,1.792 -2e-5,1.15203 -0.55469,1.94137 -1.664,2.368 -0.34136,0.12803 -0.68269,0.19203 -1.024,0.192 -1.28002,3e-5 -2.04802,-0.63997 -2.304,-1.92 -0.0427,-0.2133 -0.064,-0.42663 -0.064,-0.64 -2e-5,-0.25596 0.19198,-0.81063 0.576,-1.664 0.0426,-0.12796 0.064,-0.23463 0.064,-0.32 -2e-5,-0.51196 -0.46935,-0.76796 -1.408,-0.768 -2.73068,4e-5 -4.90668,2.9227 -6.528,8.768 -0.42668,1.66403 -0.85334,3.60536 -1.28,5.824 h 6.912 l -0.384,2.048 h -6.976 l -4.608,20.48 c -2.34667,10.53866 -5.952,16.49065 -10.816,17.856 -0.63999,0.17065 -1.30133,0.25598 -1.984,0.256 -2.13332,-2e-5 -3.64799,-0.74668 -4.544,-2.24 -0.34132,-0.51201 -0.51199,-1.06668 -0.512,-1.664 1e-5,-1.28001 0.53335,-2.11201 1.6,-2.496 0.25601,-0.0853 0.51201,-0.12801 0.768,-0.128 1.10934,-1e-5 1.87734,0.51199 2.304,1.536 0.12801,0.29865 0.19201,0.59732 0.192,0.896 m 33.86382,-11.456 c 0.98132,0 2.73065,-1.664 5.248,-4.992 l 0.832,0.704 c -2.73068,4.01067 -5.07734,6.336 -7.04,6.976 -0.59734,0.21333 -1.23734,0.32 -1.92,0.32 -1.96267,0 -2.944,-1.216 -2.944,-3.648 0,-1.23733 0.46933,-3.56266 1.408,-6.976 l 3.072,-11.328 c 0.38399,-1.27998 0.57599,-2.21865 0.576,-2.816 -1e-5,-0.72531 -0.38401,-1.17331 -1.152,-1.344 -0.51201,-0.0853 -1.47201,-0.14931 -2.88,-0.192 v -1.024 c 1.96266,-0.17064 5.37599,-0.70398 10.24,-1.6 l 0.192,0.128 -6.016,22.016 c -0.42668,1.536 -0.64001,2.47467 -0.64,2.816 -10e-6,0.42667 0.25599,0.72533 0.768,0.896 0.0853,0.0427 0.17066,0.064 0.256,0.064 m 4.736,-39.552 c 1.27998,4e-5 2.23998,0.66137 2.88,1.984 0.21332,0.51204 0.31998,1.02404 0.32,1.536 -2e-5,1.36537 -0.61868,2.3467 -1.856,2.944 -0.38402,0.21336 -0.81068,0.32003 -1.28,0.32 -1.57868,3e-5 -2.56001,-0.76797 -2.944,-2.304 -0.0853,-0.3413 -0.12801,-0.70397 -0.128,-1.088 -10e-6,-1.57863 0.63999,-2.6453 1.92,-3.2 0.34132,-0.12796 0.70399,-0.19196 1.088,-0.192 m 77.782,25.344 -16.192,13.184 -1.408,-2.112 10.176,-9.216 h -46.848 l 1.024,-3.584 h 46.848 l -5.056,-9.216 2.56,-2.112 8.896,13.056 m 65.91,-11.2 c -5e-5,1.28002 -1.15204,5.54669 -3.456,12.8 -1.96271,6.22934 -2.94404,10.176 -2.944,11.84 -4e-5,0.46933 0.25596,0.704 0.768,0.704 0.89596,0 2.53862,-1.472 4.928,-4.416 l 1.024,0.576 c -2.85871,3.968 -5.33337,6.16533 -7.424,6.592 -0.34137,0.0853 -0.66137,0.128 -0.96,0.128 -1.7067,0 -2.7307,-0.81067 -3.072,-2.432 -0.0427,-0.256 -0.064,-0.53333 -0.064,-0.832 -4e-5,-1.57867 1.6853,-8.21333 5.056,-19.904 0.17063,-0.63998 0.29863,-1.13065 0.384,-1.472 0.0853,-0.25598 0.12796,-0.42665 0.128,-0.512 -4e-5,-0.46931 -0.36271,-0.70398 -1.088,-0.704 h -9.92 l -4.608,20.48 c -2.73069,12.07466 -7.01868,18.11198 -12.864,18.112 -2.13334,-2e-5 -3.62668,-0.70402 -4.48,-2.112 -0.34134,-0.55468 -0.51201,-1.17335 -0.512,-1.856 -10e-6,-1.19468 0.49066,-1.98401 1.472,-2.368 0.29866,-0.12801 0.59732,-0.19201 0.896,-0.192 1.10932,-1e-5 1.87732,0.49066 2.304,1.472 0.12799,0.29865 0.19199,0.59732 0.192,0.896 -10e-6,0.21332 -0.14935,0.66132 -0.448,1.344 -0.0853,0.17065 -0.12801,0.31999 -0.128,0.448 -1e-5,0.55465 0.42665,0.83198 1.28,0.832 h 0.256 c 2.55998,-2e-5 4.54398,-3.39201 5.952,-10.176 l 3.712,-18.24 1.28,-6.656 c 0.21331,-0.72531 0.44798,-1.38665 0.704,-1.984 h -10.816 l -4.608,20.48 c -2.73067,12.07466 -7.01867,18.11198 -12.864,18.112 -2.13333,-2e-5 -3.62666,-0.70402 -4.48,-2.112 -0.34132,-0.55468 -0.51199,-1.17335 -0.512,-1.856 10e-6,-1.19468 0.49068,-1.98401 1.472,-2.368 0.29867,-0.12801 0.59734,-0.19201 0.896,-0.192 1.10934,-1e-5 1.87734,0.49066 2.304,1.472 0.128,0.29865 0.192,0.59732 0.192,0.896 0,0.21332 -0.14933,0.66132 -0.448,1.344 -0.0853,0.17065 -0.128,0.31999 -0.128,0.448 0,0.55465 0.42667,0.83198 1.28,0.832 h 0.256 c 2.56,-2e-5 4.544,-3.39201 5.952,-10.176 l 3.712,-18.24 1.28,-6.656 c 0.21332,-0.72531 0.44799,-1.38665 0.704,-1.984 h -5.568 l 0.448,-2.048 h 5.568 c 1.96266,-6.7413 4.50132,-11.2853 7.616,-13.632 2.17598,-1.70663 4.79998,-2.55996 7.872,-2.56 2.47464,4e-5 4.30931,0.68271 5.504,2.048 0.4693,0.5547 0.74664,1.1947 0.832,1.92 2.47463,-2.64529 5.63196,-3.96796 9.472,-3.968 2.47462,4e-5 4.30929,0.68271 5.504,2.048 0.59729,0.6827 0.89595,1.47204 0.896,2.368 -5e-5,1.4507 -0.64005,2.3467 -1.92,2.688 -0.25604,0.0427 -0.51204,0.064 -0.768,0.064 -1.32271,3e-5 -2.15471,-0.5973 -2.496,-1.792 -0.0854,-0.25597 -0.12804,-0.5333 -0.128,-0.832 -4e-5,-0.5973 0.21329,-1.15196 0.64,-1.664 0.12796,-0.12796 0.19196,-0.2773 0.192,-0.448 -4e-5,-0.68263 -0.74671,-1.02396 -2.24,-1.024 -3.66937,4e-5 -6.48537,2.8587 -8.448,8.576 -0.12803,0.38403 -0.72536,2.45336 -1.792,6.208 h 9.6 l 6.336,-0.512 0.32,0.192 m -17.6,-8.704 c -1.62136,3e-5 -2.53869,-0.68263 -2.752,-2.048 -0.0427,-0.17063 -0.064,-0.36263 -0.064,-0.576 -3e-5,-0.5973 0.21331,-1.15196 0.64,-1.664 0.12797,-0.12796 0.19197,-0.2773 0.192,-0.448 -3e-5,-0.68263 -0.74669,-1.02396 -2.24,-1.024 -3.66935,4e-5 -6.48535,2.8587 -8.448,8.576 -0.12802,0.38403 -0.72535,2.45336 -1.792,6.208 h 10.88 c 1.10931,-3.83997 2.30397,-6.84797 3.584,-9.024" />
  </g>
</svg>
